<svg id="svg" version="1.1" xmlns="http://www.w3.org/2000/svg" xmlns:xlink="http://www.w3.org/1999/xlink" width="400" height="299.6138996138996" viewBox="0, 0, 400,299.6138996138996"><g id="svgg"><path id="path0" d="M0.000 149.813 L 0.000 299.625 200.000 299.625 L 400.000 299.625 400.000 149.813 L 400.000 0.000 200.000 0.000 L 0.000 0.000 0.000 149.813 M202.243 116.881 C 203.268 117.101,203.915 117.434,204.220 117.898 C 204.468 118.278,204.916 118.653,205.215 118.731 C 205.514 118.809,205.855 119.261,205.974 119.736 C 206.092 120.211,206.404 120.837,206.666 121.129 C 207.366 121.906,207.244 124.441,206.459 125.440 C 206.120 125.871,205.843 126.358,205.843 126.522 C 205.843 126.973,203.766 128.839,203.264 128.839 C 203.023 128.839,202.494 129.056,202.089 129.321 C 201.581 129.654,200.725 129.795,199.328 129.775 C 198.215 129.759,196.899 129.854,196.404 129.987 L 195.506 130.229 195.355 135.164 L 195.205 140.100 194.157 141.837 C 193.580 142.793,192.839 143.717,192.509 143.891 C 192.180 144.066,191.603 144.510,191.229 144.879 C 190.764 145.337,190.001 145.619,188.832 145.764 C 187.888 145.882,186.872 146.109,186.573 146.268 C 186.221 146.456,185.903 146.455,185.674 146.266 C 185.478 146.105,184.683 145.879,183.907 145.764 C 183.131 145.648,182.149 145.265,181.724 144.912 C 180.018 143.494,178.577 141.925,178.577 141.486 C 178.577 141.230,178.349 140.770,178.071 140.462 C 177.793 140.155,177.473 139.335,177.360 138.641 L 177.154 137.378 177.116 138.801 C 177.042 141.610,176.629 140.158,176.632 137.100 C 176.636 133.880,177.044 132.266,177.124 135.156 L 177.169 136.779 177.348 135.511 C 177.447 134.813,177.750 133.985,178.022 133.670 C 178.294 133.355,178.601 132.831,178.705 132.504 C 178.996 131.584,180.959 129.710,181.992 129.365 C 182.503 129.194,183.171 128.837,183.476 128.572 C 183.921 128.185,185.019 128.060,189.019 127.940 L 194.007 127.790 194.157 124.031 L 194.307 120.272 195.914 118.692 C 197.098 117.526,197.846 117.046,198.760 116.865 C 200.513 116.518,200.553 116.519,202.243 116.881 M193.858 120.917 C 193.858 121.338,193.736 121.608,193.586 121.516 C 193.437 121.423,193.385 121.078,193.471 120.749 C 193.687 119.924,193.858 119.998,193.858 120.917 M208.235 123.353 C 208.238 124.044,208.105 124.692,207.940 124.794 C 207.752 124.910,207.642 124.274,207.645 123.089 C 207.648 121.758,207.736 121.331,207.940 121.648 C 208.100 121.895,208.233 122.662,208.235 123.353 M190.201 127.563 C 188.932 127.619,186.775 127.620,185.407 127.564 C 184.040 127.508,185.079 127.462,187.715 127.462 C 190.352 127.462,191.471 127.507,190.201 127.563 M208.015 127.562 C 206.576 127.662,206.442 127.734,206.442 128.405 C 206.442 129.039,206.310 129.135,205.468 129.109 C 204.571 129.081,204.553 129.063,205.243 128.872 C 205.703 128.745,206.029 128.409,206.088 128.003 C 206.175 127.401,206.339 127.346,207.886 127.396 L 209.588 127.452 208.015 127.562 M215.805 127.956 C 216.423 128.127,216.929 128.383,216.929 128.524 C 216.929 128.665,217.422 129.036,218.025 129.349 C 218.628 129.662,219.358 130.360,219.648 130.900 C 219.938 131.441,220.422 132.156,220.724 132.489 C 221.199 133.014,221.294 133.808,221.423 138.383 L 221.573 143.670 224.569 143.847 C 228.774 144.095,232.210 145.781,232.210 147.597 C 232.210 147.839,232.430 148.373,232.700 148.784 C 233.642 150.222,232.595 154.248,231.133 154.809 C 230.914 154.893,230.654 155.216,230.555 155.527 C 230.294 156.349,228.440 156.791,225.807 156.658 L 223.516 156.542 221.945 154.972 L 220.375 153.403 220.225 149.585 L 220.075 145.768 214.973 145.618 C 210.257 145.480,209.806 145.417,209.015 144.794 C 208.544 144.423,207.905 144.120,207.594 144.120 C 207.281 144.120,206.876 143.784,206.687 143.371 C 206.499 142.959,206.185 142.622,205.988 142.622 C 205.791 142.622,205.132 141.846,204.523 140.899 L 203.416 139.176 203.506 136.066 C 203.588 133.225,203.654 132.917,204.270 132.509 C 204.640 132.263,204.944 131.907,204.944 131.717 C 204.944 131.090,206.775 129.139,207.363 129.139 C 207.680 129.139,207.940 128.997,207.940 128.824 C 207.940 127.820,213.218 127.237,215.805 127.956 M203.146 136.797 C 203.146 139.029,203.040 140.194,202.846 140.075 C 202.516 139.871,202.424 133.856,202.747 133.533 C 203.123 133.156,203.146 133.341,203.146 136.797 M174.635 142.445 C 175.073 142.678,175.855 143.025,176.373 143.218 C 177.245 143.541,179.055 145.425,179.530 146.504 C 179.647 146.770,179.759 146.393,179.795 145.618 C 179.829 144.876,179.914 144.567,179.985 144.930 C 180.055 145.293,180.381 145.675,180.709 145.779 C 181.111 145.907,181.215 146.081,181.029 146.317 C 180.510 146.972,180.129 148.761,179.952 151.367 L 179.775 153.970 185.295 154.064 C 190.444 154.151,190.862 154.200,191.512 154.797 C 191.896 155.149,192.513 155.529,192.884 155.641 C 193.255 155.754,193.558 155.966,193.558 156.113 C 193.558 156.261,193.823 156.628,194.146 156.929 C 196.476 159.100,197.374 164.166,195.805 166.292 C 195.393 166.851,195.056 167.480,195.056 167.692 C 195.056 167.903,194.724 168.293,194.319 168.559 C 193.913 168.825,193.509 169.270,193.421 169.549 C 193.332 169.827,192.889 170.225,192.435 170.432 C 191.982 170.639,191.139 171.073,190.562 171.396 C 188.843 172.360,183.923 172.061,183.304 170.956 C 183.160 170.698,182.846 170.487,182.606 170.487 C 182.147 170.487,180.075 168.452,180.075 168.001 C 180.075 167.855,179.772 167.491,179.401 167.191 C 178.755 166.668,178.722 166.419,178.623 161.300 C 178.498 154.884,178.689 155.206,175.019 155.204 C 171.850 155.202,169.949 154.815,169.680 154.116 C 169.585 153.866,169.191 153.542,168.806 153.396 C 168.404 153.243,168.018 152.775,167.899 152.295 C 167.785 151.836,167.493 151.315,167.252 151.136 C 166.472 150.561,166.408 147.811,167.151 146.807 C 167.503 146.331,167.790 145.806,167.790 145.640 C 167.790 145.172,169.685 143.221,170.140 143.221 C 170.363 143.221,170.971 143.031,171.490 142.798 C 173.458 141.918,173.611 141.901,174.635 142.445 M178.277 142.806 C 178.277 142.870,177.940 142.921,177.528 142.921 C 177.116 142.921,176.779 142.805,176.779 142.663 C 176.779 142.521,177.116 142.470,177.528 142.548 C 177.940 142.627,178.277 142.743,178.277 142.806 M223.820 142.622 C 224.431 142.817,224.306 142.867,223.146 142.891 C 222.363 142.908,221.723 142.787,221.723 142.622 C 221.723 142.275,222.737 142.275,223.820 142.622 M213.333 146.217 C 212.740 146.601,209.226 146.601,208.989 146.217 C 208.871 146.027,209.709 145.919,211.293 145.922 C 213.011 145.925,213.643 146.017,213.333 146.217 M218.727 146.217 C 218.727 146.569,218.496 146.569,217.678 146.217 C 217.147 145.989,217.172 145.957,217.903 145.939 C 218.356 145.927,218.727 146.052,218.727 146.217 M165.993 149.081 C 165.993 150.315,165.881 150.978,165.693 150.861 C 165.158 150.531,165.340 147.116,165.893 147.116 C 165.948 147.116,165.993 148.000,165.993 149.081 M234.361 151.412 C 234.099 151.954,234.049 151.816,234.051 150.562 C 234.055 149.180,234.079 149.130,234.365 149.914 C 234.579 150.502,234.578 150.965,234.361 151.412 M214.831 151.910 C 215.145 152.113,214.647 152.201,213.184 152.201 C 211.720 152.201,211.222 152.113,211.536 151.910 C 211.783 151.750,212.524 151.620,213.184 151.620 C 213.843 151.620,214.584 151.750,214.831 151.910 M216.180 153.408 C 216.826 153.738,217.538 154.007,217.761 154.007 C 218.484 154.007,221.423 157.201,221.423 157.986 C 221.423 158.384,221.693 158.953,222.022 159.251 C 223.303 160.410,222.013 167.491,220.521 167.491 C 220.380 167.491,220.177 167.768,220.069 168.107 C 219.962 168.446,219.548 168.847,219.150 168.999 C 218.753 169.150,218.427 169.408,218.427 169.572 C 218.427 169.736,217.652 170.093,216.704 170.365 C 215.757 170.637,214.837 170.973,214.662 171.114 C 214.486 171.254,212.463 171.406,210.167 171.452 L 205.993 171.536 205.843 175.033 C 205.710 178.133,205.616 178.613,205.019 179.248 C 204.648 179.641,204.345 180.119,204.345 180.308 C 204.345 180.498,204.041 180.809,203.670 181.001 C 203.300 181.192,202.683 181.634,202.299 181.984 C 200.654 183.484,194.157 181.860,194.157 179.949 C 194.157 179.733,193.887 179.212,193.556 178.792 C 191.881 176.663,192.815 173.281,195.778 170.745 C 196.928 169.760,197.014 169.739,200.572 169.549 C 202.564 169.443,204.197 169.340,204.200 169.322 C 204.203 169.304,204.243 167.434,204.289 165.169 C 204.378 160.776,204.902 158.095,205.830 157.287 C 206.124 157.030,206.459 156.525,206.573 156.163 C 206.688 155.801,206.970 155.506,207.201 155.506 C 207.431 155.506,207.763 155.238,207.938 154.910 C 208.114 154.582,208.624 154.224,209.072 154.115 C 209.521 154.005,210.358 153.667,210.932 153.362 C 212.331 152.621,214.675 152.641,216.180 153.408 M220.225 153.858 C 220.225 154.573,220.201 154.583,219.689 154.082 C 219.172 153.577,219.269 153.377,220.150 153.130 C 220.191 153.118,220.225 153.446,220.225 153.858 M223.396 156.964 C 223.246 157.205,221.723 157.073,221.723 156.819 C 221.723 156.756,222.135 156.704,222.639 156.704 C 223.144 156.704,223.484 156.821,223.396 156.964 M197.453 162.996 C 197.453 164.847,197.324 166.337,197.154 166.442 C 196.960 166.562,196.854 165.341,196.854 162.996 C 196.854 160.652,196.960 159.431,197.154 159.551 C 197.324 159.656,197.453 161.146,197.453 162.996 M223.790 161.441 C 223.735 164.063,223.283 164.535,223.251 162.005 C 223.232 160.514,223.330 159.732,223.521 159.850 C 223.685 159.952,223.807 160.668,223.790 161.441 M203.141 163.820 C 203.138 165.817,203.045 166.599,202.846 166.292 C 202.350 165.524,202.506 160.899,203.028 160.899 C 203.093 160.899,203.144 162.213,203.141 163.820 M203.146 168.989 C 203.146 169.171,201.887 169.280,199.925 169.267 C 197.847 169.254,196.917 169.155,197.303 168.989 C 198.159 168.621,203.146 168.621,203.146 168.989 M192.338 176.255 C 192.324 177.746,192.237 178.239,192.060 177.828 C 191.619 176.803,191.752 174.082,192.242 174.082 C 192.307 174.082,192.350 175.060,192.338 176.255 M206.451 178.687 C 206.239 178.899,206.148 178.672,206.161 177.963 C 206.179 176.991,206.198 176.973,206.470 177.654 C 206.662 178.134,206.656 178.483,206.451 178.687 M198.052 183.186 C 198.052 183.452,196.840 183.591,196.687 183.343 C 196.594 183.193,196.864 183.071,197.286 183.071 C 197.707 183.071,198.052 183.123,198.052 183.186 M201.815 183.343 C 201.723 183.492,201.378 183.544,201.048 183.458 C 200.224 183.242,200.298 183.071,201.216 183.071 C 201.638 183.071,201.907 183.193,201.815 183.343 " stroke="none" fill="#ececf4" fill-rule="evenodd"></path><path id="path1" d="M198.255 118.597 C 195.901 119.726,195.356 120.898,195.356 124.834 C 195.356 128.168,195.434 128.240,199.048 128.240 C 204.214 128.240,206.741 125.001,205.039 120.564 C 204.253 118.516,200.622 117.463,198.255 118.597 M209.903 129.122 C 209.613 129.442,208.995 129.788,208.529 129.890 C 205.671 130.518,203.825 136.188,205.397 139.511 C 207.163 143.243,209.150 144.120,215.846 144.120 L 220.213 144.120 220.398 143.382 C 221.303 139.779,219.917 132.512,218.012 130.870 C 215.700 128.877,211.035 127.871,209.903 129.122 M183.475 129.945 C 182.097 130.215,179.583 133.067,179.216 134.776 C 178.189 139.566,179.465 142.405,183.426 144.144 C 190.384 147.198,196.098 140.226,194.336 130.832 L 194.130 129.738 189.125 129.779 C 186.372 129.801,183.830 129.876,183.475 129.945 M169.947 144.794 C 168.550 145.924,168.399 146.315,168.394 148.819 C 168.385 152.860,171.540 154.844,176.909 154.173 C 178.882 153.926,179.055 153.498,178.735 149.657 C 178.531 147.218,178.506 147.156,177.031 145.501 L 175.533 143.820 173.342 143.820 C 171.317 143.820,171.060 143.894,169.947 144.794 M221.498 145.517 C 221.230 145.625,221.124 146.607,221.124 148.963 L 221.124 152.258 222.897 154.031 C 225.478 156.613,227.192 156.632,229.835 154.112 L 231.610 152.418 231.610 150.646 C 231.610 148.309,230.357 146.337,228.396 145.592 C 227.652 145.309,222.161 145.249,221.498 145.517 M210.037 155.034 C 209.625 155.280,208.856 155.711,208.327 155.993 C 207.774 156.286,207.230 156.889,207.049 157.409 C 206.876 157.906,206.500 158.573,206.213 158.890 C 205.764 159.387,205.695 160.110,205.707 164.153 C 205.726 170.522,205.194 169.946,210.920 169.792 L 215.705 169.663 217.290 168.607 C 220.687 166.344,221.509 164.025,220.646 159.142 C 220.460 158.095,218.932 156.105,218.313 156.105 C 218.150 156.105,217.694 155.801,217.299 155.431 C 216.373 154.559,211.297 154.282,210.037 155.034 M179.533 159.975 L 179.658 164.944 180.731 166.592 C 182.492 169.296,183.043 169.745,185.102 170.150 C 191.694 171.447,196.390 166.629,194.586 160.421 C 194.327 159.530,193.954 158.633,193.758 158.427 C 193.561 158.221,193.171 157.693,192.890 157.255 C 192.584 156.776,191.986 156.374,191.396 156.251 C 190.855 156.138,190.142 155.876,189.812 155.668 C 189.420 155.420,187.515 155.240,184.310 155.148 L 179.409 155.007 179.533 159.975 M197.873 171.299 C 194.416 171.737,193.233 177.755,196.165 179.991 C 197.412 180.942,200.396 181.163,202.128 180.431 C 204.249 179.536,205.623 173.264,204.045 171.685 C 203.449 171.090,200.827 170.926,197.873 171.299 " stroke="none" fill="#0db2dc" fill-rule="evenodd"></path><path id="path2" d="M198.801 117.408 C 195.825 118.376,194.684 120.323,194.475 124.794 L 194.307 128.390 189.513 128.551 C 184.003 128.736,182.745 129.079,180.730 130.947 C 174.931 136.325,178.485 145.421,186.400 145.455 L 189.279 145.468 191.044 144.238 C 192.401 143.293,193.049 142.566,193.847 141.092 L 194.885 139.176 195.005 134.007 L 195.124 128.839 198.311 128.837 C 202.313 128.835,203.411 128.533,204.732 127.070 C 208.669 122.712,204.314 115.616,198.801 117.408 M203.490 119.144 C 205.034 120.266,205.108 120.390,205.400 122.336 C 205.958 126.060,203.613 128.240,199.048 128.240 C 195.434 128.240,195.356 128.168,195.356 124.834 C 195.356 118.774,199.240 116.057,203.490 119.144 M209.438 128.500 C 208.861 128.828,208.120 129.228,207.790 129.387 C 205.938 130.284,203.745 134.130,203.745 136.479 C 203.745 141.783,208.105 145.087,215.056 145.053 C 220.772 145.025,220.524 144.842,220.524 149.106 L 220.524 152.609 222.456 154.540 L 224.387 156.472 226.641 156.358 C 232.585 156.058,234.507 148.194,229.363 145.220 C 229.034 145.029,227.079 144.805,225.019 144.721 L 221.273 144.569 221.091 139.326 C 220.893 133.635,220.582 132.515,218.675 130.611 C 216.245 128.186,211.782 127.166,209.438 128.500 M215.464 129.431 C 219.362 131.248,220.248 132.890,220.447 138.663 C 220.522 140.853,220.500 142.976,220.398 143.382 L 220.213 144.120 215.846 144.120 C 209.150 144.120,207.163 143.243,205.397 139.511 C 203.825 136.188,205.671 130.518,208.529 129.890 C 208.995 129.788,209.613 129.442,209.903 129.122 C 210.734 128.203,213.113 128.335,215.464 129.431 M194.336 130.832 C 195.678 137.988,192.530 144.297,187.325 144.886 C 180.069 145.707,175.894 136.683,181.193 131.632 C 183.153 129.764,182.872 129.830,189.125 129.779 L 194.130 129.738 194.336 130.832 M171.500 143.320 C 169.608 143.858,168.451 145.032,167.770 147.107 L 167.177 148.912 167.841 150.813 C 168.502 152.707,168.741 152.965,171.071 154.293 C 171.557 154.570,173.091 154.789,175.281 154.893 L 178.727 155.056 178.886 160.339 C 179.062 166.160,179.180 166.527,181.723 169.176 C 187.710 175.411,198.900 167.632,195.199 159.808 C 194.292 157.891,192.745 155.805,192.230 155.805 C 192.049 155.805,191.364 155.502,190.707 155.131 C 189.642 154.529,188.981 154.441,184.569 154.307 L 179.625 154.157 179.476 150.696 C 179.314 146.970,179.206 146.667,177.311 144.671 C 175.781 143.059,173.933 142.629,171.500 143.320 M177.031 145.501 C 178.618 147.281,179.322 150.396,178.739 153.051 C 178.195 155.531,169.697 154.113,168.654 151.368 C 168.359 150.591,168.304 147.293,168.570 146.367 C 168.997 144.886,170.993 143.820,173.342 143.820 L 175.533 143.820 177.031 145.501 M228.396 145.592 C 230.357 146.337,231.610 148.309,231.610 150.646 L 231.610 152.418 229.835 154.112 C 227.192 156.632,225.478 156.613,222.897 154.031 L 221.124 152.258 221.124 148.963 C 221.124 146.607,221.230 145.625,221.498 145.517 C 222.161 145.249,227.652 145.309,228.396 145.592 M210.623 154.116 C 208.787 154.611,207.210 155.917,206.054 157.903 L 205.094 159.551 204.995 164.680 L 204.896 169.810 203.347 169.996 C 202.495 170.098,200.920 170.183,199.847 170.185 C 195.745 170.190,192.114 174.559,193.658 177.632 C 193.878 178.069,194.248 178.819,194.482 179.298 C 194.983 180.326,198.089 182.163,199.334 182.169 C 202.963 182.184,205.309 179.072,205.543 173.933 L 205.693 170.637 210.942 170.487 L 216.191 170.337 217.648 169.371 C 226.329 163.617,220.703 151.397,210.623 154.116 M217.299 155.431 C 217.694 155.801,218.150 156.105,218.313 156.105 C 218.932 156.105,220.460 158.095,220.646 159.142 C 221.509 164.025,220.687 166.344,217.290 168.607 L 215.705 169.663 210.920 169.792 C 205.194 169.946,205.726 170.522,205.707 164.153 C 205.695 160.110,205.764 159.387,206.213 158.890 C 206.500 158.573,206.876 157.906,207.049 157.409 C 207.230 156.889,207.774 156.286,208.327 155.993 C 208.856 155.711,209.625 155.280,210.037 155.034 C 211.297 154.282,216.373 154.559,217.299 155.431 M189.812 155.668 C 190.142 155.876,190.855 156.138,191.396 156.251 C 191.986 156.374,192.584 156.776,192.890 157.255 C 193.171 157.693,193.561 158.221,193.758 158.427 C 193.954 158.633,194.327 159.530,194.586 160.421 C 196.390 166.629,191.694 171.447,185.102 170.150 C 183.043 169.745,182.492 169.296,180.731 166.592 L 179.658 164.944 179.533 159.975 L 179.409 155.007 184.310 155.148 C 187.515 155.240,189.420 155.420,189.812 155.668 M204.045 171.685 C 205.623 173.264,204.249 179.536,202.128 180.431 C 200.396 181.163,197.412 180.942,196.165 179.991 C 193.233 177.755,194.416 171.737,197.873 171.299 C 200.827 170.926,203.449 171.090,204.045 171.685 " stroke="none" fill="#89cde6" fill-rule="evenodd"></path><path id="path3" d="M198.760 116.865 C 197.846 117.046,197.098 117.526,195.914 118.692 L 194.307 120.272 194.157 124.031 L 194.007 127.790 189.019 127.940 C 185.019 128.060,183.921 128.185,183.476 128.572 C 183.171 128.837,182.503 129.194,181.992 129.365 C 180.949 129.714,178.995 131.587,178.698 132.524 C 178.591 132.861,178.250 133.409,177.941 133.741 C 177.022 134.728,177.058 138.974,177.997 140.287 C 178.316 140.734,178.577 141.291,178.577 141.525 C 178.577 141.931,180.068 143.536,181.724 144.912 C 182.149 145.265,183.131 145.648,183.907 145.764 C 184.683 145.879,185.478 146.105,185.674 146.266 C 185.903 146.455,186.221 146.456,186.573 146.268 C 186.872 146.109,187.888 145.882,188.832 145.764 C 190.001 145.619,190.764 145.337,191.229 144.879 C 191.603 144.510,192.180 144.066,192.509 143.891 C 192.839 143.717,193.580 142.793,194.157 141.837 L 195.205 140.100 195.355 135.164 L 195.506 130.229 196.404 129.987 C 196.899 129.854,198.215 129.759,199.328 129.775 C 200.725 129.795,201.581 129.654,202.089 129.321 C 202.494 129.056,203.023 128.839,203.264 128.839 C 203.766 128.839,205.843 126.973,205.843 126.522 C 205.843 126.358,206.120 125.871,206.459 125.440 C 207.244 124.441,207.366 121.906,206.666 121.129 C 206.404 120.837,206.092 120.211,205.974 119.736 C 205.855 119.261,205.514 118.809,205.215 118.731 C 204.916 118.653,204.468 118.278,204.220 117.898 C 203.915 117.434,203.268 117.101,202.243 116.881 C 200.553 116.519,200.513 116.518,198.760 116.865 M202.631 117.585 C 206.424 119.280,207.476 124.033,204.732 127.070 C 203.411 128.533,202.313 128.835,198.311 128.837 L 195.124 128.839 195.005 134.007 L 194.885 139.176 193.847 141.092 C 193.049 142.566,192.401 143.293,191.044 144.238 L 189.279 145.468 186.400 145.455 C 178.485 145.421,174.931 136.325,180.730 130.947 C 182.745 129.079,184.003 128.736,189.513 128.551 L 194.307 128.390 194.475 124.794 C 194.753 118.839,198.342 115.667,202.631 117.585 M208.914 128.087 C 208.378 128.320,207.940 128.652,207.940 128.824 C 207.940 128.997,207.680 129.139,207.363 129.139 C 206.775 129.139,204.944 131.090,204.944 131.717 C 204.944 131.907,204.640 132.263,204.270 132.509 C 203.654 132.917,203.588 133.225,203.506 136.066 L 203.416 139.176 204.523 140.899 C 205.132 141.846,205.791 142.622,205.988 142.622 C 206.185 142.622,206.499 142.959,206.687 143.371 C 206.876 143.784,207.281 144.120,207.594 144.120 C 207.905 144.120,208.544 144.423,209.015 144.794 C 209.806 145.417,210.257 145.480,214.973 145.618 L 220.075 145.768 220.225 149.585 L 220.375 153.403 221.945 154.972 L 223.516 156.542 225.807 156.658 C 228.440 156.791,230.294 156.349,230.555 155.527 C 230.654 155.216,230.914 154.893,231.133 154.809 C 232.595 154.248,233.642 150.222,232.700 148.784 C 232.430 148.373,232.210 147.839,232.210 147.597 C 232.210 145.781,228.774 144.095,224.569 143.847 L 221.573 143.670 221.423 138.383 C 221.294 133.808,221.199 133.014,220.724 132.489 C 220.422 132.156,219.938 131.441,219.648 130.900 C 219.358 130.360,218.628 129.662,218.025 129.349 C 217.422 129.036,216.929 128.665,216.929 128.524 C 216.929 127.666,210.667 127.325,208.914 128.087 M216.445 128.985 C 220.217 131.195,220.858 132.621,221.091 139.326 L 221.273 144.569 225.019 144.721 C 227.079 144.805,229.034 145.029,229.363 145.220 C 234.507 148.194,232.585 156.058,226.641 156.358 L 224.387 156.472 222.456 154.540 L 220.524 152.609 220.524 149.106 C 220.524 144.842,220.772 145.025,215.056 145.053 C 209.162 145.082,206.839 143.908,204.676 139.808 C 202.862 136.369,204.468 130.997,207.790 129.387 C 208.120 129.228,208.861 128.828,209.438 128.500 C 211.032 127.593,214.477 127.831,216.445 128.985 M172.884 142.223 C 172.637 142.307,172.010 142.566,171.490 142.798 C 170.971 143.031,170.363 143.221,170.140 143.221 C 169.685 143.221,167.790 145.172,167.790 145.640 C 167.790 145.806,167.503 146.331,167.151 146.807 C 166.408 147.811,166.472 150.561,167.252 151.136 C 167.493 151.315,167.785 151.836,167.899 152.295 C 168.018 152.775,168.404 153.243,168.806 153.396 C 169.191 153.542,169.585 153.866,169.680 154.116 C 169.949 154.815,171.850 155.202,175.019 155.204 C 178.689 155.206,178.498 154.884,178.623 161.300 C 178.722 166.419,178.755 166.668,179.401 167.191 C 179.772 167.491,180.075 167.855,180.075 168.001 C 180.075 168.452,182.147 170.487,182.606 170.487 C 182.846 170.487,183.160 170.698,183.304 170.956 C 183.923 172.061,188.843 172.360,190.562 171.396 C 191.139 171.073,191.982 170.639,192.435 170.432 C 192.889 170.225,193.332 169.827,193.421 169.549 C 193.509 169.270,193.913 168.825,194.319 168.559 C 194.724 168.293,195.056 167.903,195.056 167.692 C 195.056 167.480,195.393 166.851,195.805 166.292 C 197.374 164.166,196.476 159.100,194.146 156.929 C 193.823 156.628,193.558 156.261,193.558 156.113 C 193.558 155.966,193.255 155.754,192.884 155.641 C 192.513 155.529,191.896 155.149,191.512 154.797 C 190.862 154.201,190.443 154.151,185.318 154.064 L 179.822 153.971 179.724 150.165 L 179.625 146.359 178.451 144.955 C 177.806 144.183,176.862 143.398,176.354 143.210 C 175.846 143.022,175.073 142.678,174.635 142.445 C 173.798 142.000,173.609 141.976,172.884 142.223 M175.101 143.249 C 176.226 143.561,177.792 144.924,178.839 146.501 C 179.190 147.030,179.368 148.201,179.476 150.696 L 179.625 154.157 184.569 154.307 C 188.981 154.441,189.642 154.529,190.707 155.131 C 191.364 155.502,192.049 155.805,192.230 155.805 C 192.745 155.805,194.292 157.891,195.199 159.808 C 198.900 167.632,187.710 175.411,181.723 169.176 C 179.180 166.527,179.062 166.160,178.886 160.339 L 178.727 155.056 175.281 154.893 C 173.091 154.789,171.557 154.570,171.071 154.293 C 168.741 152.965,168.502 152.707,167.841 150.813 L 167.177 148.912 167.770 147.107 C 168.827 143.887,171.788 142.329,175.101 143.249 M210.932 153.362 C 210.358 153.667,209.521 154.005,209.072 154.115 C 208.624 154.224,208.114 154.582,207.938 154.910 C 207.763 155.238,207.431 155.506,207.201 155.506 C 206.970 155.506,206.688 155.801,206.573 156.163 C 206.459 156.525,206.124 157.030,205.830 157.287 C 204.902 158.095,204.378 160.776,204.289 165.169 C 204.243 167.434,204.203 169.304,204.200 169.322 C 204.197 169.340,202.564 169.443,200.572 169.549 C 197.014 169.739,196.928 169.760,195.778 170.745 C 192.815 173.281,191.881 176.663,193.556 178.792 C 193.887 179.212,194.157 179.733,194.157 179.949 C 194.157 181.860,200.654 183.484,202.299 181.984 C 202.683 181.634,203.300 181.192,203.670 181.001 C 204.041 180.809,204.345 180.498,204.345 180.308 C 204.345 180.119,204.648 179.641,205.019 179.248 C 205.616 178.613,205.710 178.133,205.843 175.033 L 205.993 171.536 210.167 171.452 C 212.463 171.406,214.486 171.254,214.662 171.114 C 214.837 170.973,215.757 170.637,216.704 170.365 C 217.652 170.093,218.427 169.736,218.427 169.572 C 218.427 169.408,218.753 169.150,219.150 168.999 C 219.548 168.847,219.962 168.446,220.069 168.107 C 220.177 167.768,220.380 167.491,220.521 167.491 C 222.013 167.491,223.303 160.410,222.022 159.251 C 221.693 158.953,221.423 158.384,221.423 157.986 C 221.423 157.201,218.484 154.007,217.761 154.007 C 217.538 154.007,216.826 153.738,216.180 153.408 C 214.675 152.641,212.331 152.621,210.932 153.362 M215.733 154.008 C 222.840 155.356,224.058 165.123,217.648 169.371 L 216.191 170.337 210.942 170.487 L 205.693 170.637 205.543 173.933 C 205.309 179.072,202.963 182.184,199.334 182.169 C 198.089 182.163,194.983 180.326,194.482 179.298 C 194.248 178.819,193.878 178.069,193.658 177.632 C 192.114 174.559,195.745 170.190,199.847 170.185 C 200.920 170.183,202.495 170.098,203.347 169.996 L 204.896 169.810 204.995 164.680 L 205.094 159.551 206.054 157.903 C 208.078 154.428,211.239 153.156,215.733 154.008 " stroke="none" fill="#b4d4ec" fill-rule="evenodd"></path><path id="path4" d="M193.471 120.749 C 193.385 121.078,193.437 121.423,193.586 121.516 C 193.736 121.608,193.858 121.338,193.858 120.917 C 193.858 119.998,193.687 119.924,193.471 120.749 M207.645 123.089 C 207.642 124.274,207.752 124.910,207.940 124.794 C 208.323 124.558,208.323 122.240,207.940 121.648 C 207.736 121.331,207.648 121.758,207.645 123.089 M185.407 127.564 C 186.775 127.620,188.932 127.619,190.201 127.563 C 191.471 127.507,190.352 127.462,187.715 127.462 C 185.079 127.462,184.040 127.508,185.407 127.564 M206.088 128.003 C 206.029 128.409,205.703 128.745,205.243 128.872 C 204.553 129.063,204.571 129.081,205.468 129.109 C 206.310 129.135,206.442 129.039,206.442 128.405 C 206.442 127.734,206.576 127.662,208.015 127.562 L 209.588 127.452 207.886 127.396 C 206.339 127.346,206.175 127.401,206.088 128.003 M202.747 133.533 C 202.424 133.856,202.516 139.871,202.846 140.075 C 203.040 140.194,203.146 139.029,203.146 136.797 C 203.146 133.341,203.123 133.156,202.747 133.533 M176.738 134.007 C 176.582 135.425,176.672 140.225,176.854 140.225 C 176.978 140.225,177.079 138.742,177.079 136.929 C 177.079 134.171,176.894 132.588,176.738 134.007 M176.779 142.663 C 176.779 142.805,177.116 142.921,177.528 142.921 C 177.940 142.921,178.277 142.870,178.277 142.806 C 178.277 142.743,177.940 142.627,177.528 142.548 C 177.116 142.470,176.779 142.521,176.779 142.663 M221.723 142.622 C 221.723 142.787,222.363 142.908,223.146 142.891 C 224.306 142.867,224.431 142.817,223.820 142.622 C 222.737 142.275,221.723 142.275,221.723 142.622 M179.861 148.315 C 179.865 151.660,179.899 151.971,180.058 150.112 C 180.163 148.876,180.467 147.432,180.733 146.903 C 181.188 145.996,181.184 145.930,180.665 145.765 C 180.361 145.668,180.055 145.293,179.985 144.930 C 179.914 144.567,179.859 146.090,179.861 148.315 M208.989 146.217 C 209.226 146.601,212.740 146.601,213.333 146.217 C 213.643 146.017,213.011 145.925,211.293 145.922 C 209.709 145.919,208.871 146.027,208.989 146.217 M217.678 146.217 C 218.496 146.569,218.727 146.569,218.727 146.217 C 218.727 146.052,218.356 145.927,217.903 145.939 C 217.172 145.957,217.147 145.989,217.678 146.217 M165.593 147.316 C 165.276 147.633,165.361 150.656,165.693 150.861 C 165.881 150.978,165.993 150.315,165.993 149.081 C 165.993 147.103,165.958 146.951,165.593 147.316 M234.051 150.562 C 234.049 151.816,234.099 151.954,234.361 151.412 C 234.578 150.965,234.579 150.502,234.365 149.914 C 234.079 149.130,234.055 149.180,234.051 150.562 M211.536 151.910 C 211.222 152.113,211.720 152.201,213.184 152.201 C 214.647 152.201,215.145 152.113,214.831 151.910 C 214.584 151.750,213.843 151.620,213.184 151.620 C 212.524 151.620,211.783 151.750,211.536 151.910 M219.614 153.354 C 219.210 153.533,219.219 153.623,219.689 154.082 C 220.201 154.583,220.225 154.573,220.225 153.858 C 220.225 153.446,220.191 153.118,220.150 153.130 C 220.109 153.141,219.868 153.242,219.614 153.354 M221.723 156.819 C 221.723 157.073,223.246 157.205,223.396 156.964 C 223.484 156.821,223.144 156.704,222.639 156.704 C 222.135 156.704,221.723 156.756,221.723 156.819 M196.854 162.996 C 196.854 165.341,196.960 166.562,197.154 166.442 C 197.324 166.337,197.453 164.847,197.453 162.996 C 197.453 161.146,197.324 159.656,197.154 159.551 C 196.960 159.431,196.854 160.652,196.854 162.996 M223.251 162.005 C 223.272 163.635,223.353 164.117,223.521 163.596 C 223.870 162.505,223.870 160.066,223.521 159.850 C 223.330 159.732,223.232 160.514,223.251 162.005 M202.729 161.373 C 202.439 162.127,202.527 165.798,202.846 166.292 C 203.045 166.599,203.138 165.817,203.141 163.820 C 203.146 160.907,203.073 160.475,202.729 161.373 M197.303 168.989 C 196.917 169.155,197.847 169.254,199.925 169.267 C 201.887 169.280,203.146 169.171,203.146 168.989 C 203.146 168.621,198.159 168.621,197.303 168.989 M191.942 174.556 C 191.686 175.224,191.754 177.115,192.060 177.828 C 192.237 178.239,192.324 177.746,192.338 176.255 C 192.360 174.061,192.274 173.692,191.942 174.556 M206.161 177.963 C 206.148 178.672,206.239 178.899,206.451 178.687 C 206.656 178.483,206.662 178.134,206.470 177.654 C 206.198 176.973,206.179 176.991,206.161 177.963 M196.687 183.343 C 196.779 183.492,197.124 183.544,197.453 183.458 C 198.278 183.242,198.204 183.071,197.286 183.071 C 196.864 183.071,196.594 183.193,196.687 183.343 M200.449 183.186 C 200.449 183.452,201.662 183.591,201.815 183.343 C 201.907 183.193,201.638 183.071,201.216 183.071 C 200.794 183.071,200.449 183.123,200.449 183.186 " stroke="none" fill="#f0f4f4" fill-rule="evenodd"></path></g></svg>