<svg id="svg" version="1.1" xmlns="http://www.w3.org/2000/svg" xmlns:xlink="http://www.w3.org/1999/xlink" width="400" height="319.921875" viewBox="0, 0, 400,319.921875"><g id="svgg"><path id="path0" d="M0.000 160.000 L 0.000 320.000 200.000 320.000 L 400.000 320.000 400.000 160.000 L 400.000 0.000 200.000 0.000 L 0.000 0.000 0.000 160.000 M229.794 72.384 C 233.594 81.440,235.764 90.286,236.486 99.660 C 236.942 105.568,236.484 115.050,235.543 119.200 C 235.383 119.904,235.012 121.704,234.718 123.200 C 234.424 124.696,234.064 126.151,233.918 126.433 C 233.772 126.715,233.550 127.635,233.424 128.477 L 233.194 130.007 234.437 129.724 C 251.973 125.721,263.962 146.350,251.400 158.912 C 243.169 167.144,228.499 165.135,223.710 155.120 C 222.768 153.150,222.893 153.082,220.480 156.856 C 218.703 159.636,211.823 169.120,211.236 169.600 C 211.128 169.688,209.981 170.948,208.686 172.400 C 207.391 173.852,206.226 175.040,206.096 175.040 C 205.880 175.040,200.330 166.985,200.032 166.240 C 199.962 166.064,199.814 165.848,199.703 165.760 C 199.593 165.672,198.689 164.520,197.696 163.200 C 196.702 161.880,194.801 159.576,193.470 158.080 C 190.561 154.810,190.571 154.891,192.908 153.472 C 210.857 142.568,223.360 123.760,227.347 101.665 C 228.943 92.825,229.256 79.517,228.046 72.000 C 227.373 67.822,227.932 67.945,229.794 72.384 M211.914 98.193 C 224.809 104.484,218.860 124.070,204.674 122.027 C 193.768 120.455,190.201 106.775,198.850 99.687 C 201.935 97.160,208.303 96.431,211.914 98.193 M173.478 111.098 C 186.783 117.405,184.952 136.920,170.707 140.630 C 159.490 143.552,148.667 132.895,151.530 121.747 C 154.017 112.061,164.638 106.908,173.478 111.098 M272.689 114.961 C 280.884 128.089,282.936 145.851,277.762 158.875 C 273.147 170.493,266.965 177.337,250.720 188.814 C 240.099 196.318,238.556 197.456,232.517 202.240 C 227.791 205.984,219.026 214.217,215.985 217.770 C 207.785 227.348,203.601 235.555,200.774 247.602 C 199.722 252.089,199.540 252.187,198.298 248.934 C 192.599 233.996,192.626 218.465,198.373 205.995 C 202.211 197.667,208.284 191.216,220.308 182.696 C 221.159 182.093,222.446 181.178,223.168 180.661 C 224.469 179.730,232.657 174.164,236.960 171.285 C 250.302 162.358,260.280 153.918,264.317 148.145 C 264.741 147.537,265.168 146.968,265.265 146.880 C 265.570 146.602,266.533 144.891,268.022 141.983 C 271.750 134.699,273.096 126.213,271.842 117.892 C 271.107 113.019,271.224 112.615,272.689 114.961 M156.883 142.871 C 175.473 145.976,192.143 157.883,208.190 179.520 C 208.908 180.488,209.893 181.911,210.379 182.683 L 211.262 184.086 208.246 187.163 C 202.098 193.435,199.027 198.327,196.602 205.712 C 195.986 207.586,195.414 209.325,195.330 209.576 C 195.246 209.827,194.473 208.027,193.612 205.576 C 188.360 190.618,181.758 179.421,172.757 170.208 C 159.823 156.970,141.622 149.348,124.055 149.813 C 119.296 149.939,119.230 149.877,122.475 148.336 C 129.151 145.165,135.539 143.306,143.200 142.302 C 146.432 141.878,152.432 142.128,156.883 142.871 " stroke="none" fill="#fbfbfb" fill-rule="evenodd"></path></g></svg>